<?xml version="1.0" encoding="UTF-8"?><svg id="uuid-83b8fb37-8062-40d9-86d5-70fc6df71950" xmlns="http://www.w3.org/2000/svg" viewBox="0 0 8 8"><defs><style>.uuid-98d60aab-fe4d-4c0d-bf37-5c4105c6202c{fill:#efebdf;stroke-width:0px;}</style></defs><g id="uuid-f4e82099-7af0-4fd5-8f68-b10efda57b20"><path class="uuid-98d60aab-fe4d-4c0d-bf37-5c4105c6202c" d="m4,8c-2.21,0-4-1.79-4-4S1.79,0,4,0s4,1.79,4,4-1.79,4-4,4ZM4,.24C1.93.24.24,1.93.24,4s1.69,3.76,3.76,3.76,3.76-1.69,3.76-3.76S6.07.24,4,.24Z"/><path class="uuid-98d60aab-fe4d-4c0d-bf37-5c4105c6202c" d="m4,7.22c-1.35,0-2.45-1.1-2.45-2.45s1.1-2.45,2.45-2.45,2.45,1.1,2.45,2.45-1.1,2.45-2.45,2.45Zm0-4.65c-1.22,0-2.21.99-2.21,2.21s.99,2.21,2.21,2.21,2.21-.99,2.21-2.21-.99-2.21-2.21-2.21Z"/><path class="uuid-98d60aab-fe4d-4c0d-bf37-5c4105c6202c" d="m5.55,5.67c-.92,0-1.67-.75-1.67-1.67s.75-1.67,1.67-1.67,1.67.75,1.67,1.67-.75,1.67-1.67,1.67Zm0-3.1c-.79,0-1.43.64-1.43,1.43s.64,1.43,1.43,1.43,1.43-.64,1.43-1.43-.64-1.43-1.43-1.43Z"/><path class="uuid-98d60aab-fe4d-4c0d-bf37-5c4105c6202c" d="m4.85,3.92c-.71,0-1.28-.58-1.28-1.28s.58-1.28,1.28-1.28,1.28.58,1.28,1.28-.58,1.28-1.28,1.28Zm0-2.33c-.57,0-1.04.47-1.04,1.04s.47,1.04,1.04,1.04,1.04-.47,1.04-1.04-.47-1.04-1.04-1.04Z"/></g></svg>